<?xml version="1.0" encoding="utf-8"?>
<!-- Generator: Adobe Illustrator 25.2.0, SVG Export Plug-In . SVG Version: 6.00 Build 0)  -->
<svg version="1.1" id="Calque_1" xmlns="http://www.w3.org/2000/svg" xmlns:xlink="http://www.w3.org/1999/xlink" x="0px" y="0px"
	 viewBox="0 0 1920 1080" style="enable-background:new 0 0 1920 1080;" xml:space="preserve">
<style type="text/css">
	.st0{fill:#6D62FB;}
	.st1{fill:none;stroke:#6D62FB;stroke-width:8;stroke-miterlimit:10;}
	.st2{fill:url(#SVGID_1_);}
	.st3{fill:#8C84F7;}
	.st4{fill:#A1CEA3;}
</style>
<path class="st0" d="M-221,474c1.29-35.27,0-607,0-607h2470V947c0,0-19.3-62-59.18-65c-39.88-3-68.18,15-136.36,6
	c-53.14-7.01-96.9-46.22-113.62-63.18c-14-14.2-38.48-19.6-59.78-12.84c-3.94,1.25-8.05,2.9-12.3,5.01
	c-38.14,19-124.33,106-193.8,107s-117.07-20-160.81-69c-43.74-49-122.21-93-200.69-62c-78.47,31-106.78,69-200.69,45
	c-93.91-24-105.49-64-187.82-50s-132.51,34-217.41,38s-124.79-50-156.95-108c-32.16-58-77.19-76-180.1-74s-171.1-30-214.84-62
	S73.6,527,32.43,541C32.43,541-152.82,611-221,474z"/>
</svg>
