<?xml version="1.0" encoding="utf-8"?>
<!-- Generator: Adobe Illustrator 25.2.0, SVG Export Plug-In . SVG Version: 6.00 Build 0)  -->
<svg version="1.1" id="Calque_1" xmlns="http://www.w3.org/2000/svg" xmlns:xlink="http://www.w3.org/1999/xlink" x="0px" y="0px"
	 viewBox="0 0 1920 1080" style="enable-background:new 0 0 1920 1080;" xml:space="preserve">
<style type="text/css">
	.st0{fill:#6D62FB;}
	.st1{fill:none;stroke:#6D62FB;stroke-width:8;stroke-miterlimit:10;}
	.st2{fill:url(#SVGID_1_);}
	.st3{fill:#8C84F7;}
	.st4{fill:#A1CEA3;}
</style>
<path class="st0" d="M0,607C1,571.73,0,0,0,0h1920v1080c0,0-15-62-46-65s-53,15-106,6c-41.3-7.01-75.32-46.22-88.32-63.18
	c-10.89-14.2-29.91-19.6-46.47-12.84c-3.06,1.25-6.26,2.9-9.56,5.01C1594,969,1527,1056,1473,1057s-91-20-125-69s-95-93-156-62
	s-83,69-156,45s-82-64-146-50s-103,34-169,38s-97-50-122-108s-60-76-140-74s-133-30-167-62s-63-55-95-41C197,674,53,744,0,607z"/>
</svg>
