<?xml version="1.0" encoding="utf-8"?>
<!-- Generator: Adobe Illustrator 25.2.0, SVG Export Plug-In . SVG Version: 6.00 Build 0)  -->
<svg version="1.1" id="Calque_1" xmlns="http://www.w3.org/2000/svg" xmlns:xlink="http://www.w3.org/1999/xlink" x="0px" y="0px"
	 viewBox="0 0 1920 1080" style="enable-background:new 0 0 1920 1080;" xml:space="preserve">
<style type="text/css">
	.st0{fill:#6D62FB;}
</style>
<path class="st0" d="M-221,607c1.3-35.3,0-607,0-607h2470v1080c0,0-19.3-62-59.2-65s-68.2,15-136.4,6c-53.1-7-96.9-46.2-113.6-63.2
	c-14-14.2-38.5-19.6-59.8-12.8c-3.9,1.2-8.1,2.9-12.3,5c-38.1,19-124.3,106-193.8,107s-117.1-20-160.8-69s-122.2-93-200.7-62
	c-78.5,31-106.8,69-200.7,45c-93.9-24-105.5-64-187.8-50s-132.5,34-217.4,38s-124.8-50-157-108c-32.2-58-77.2-76-180.1-74
	s-171.1-30-214.8-62s-81.1-55-122.2-41C32.4,674-152.8,744-221,607z"/>
</svg>
