<?xml version="1.0" encoding="utf-8"?>
<!-- Generator: Adobe Illustrator 25.2.0, SVG Export Plug-In . SVG Version: 6.00 Build 0)  -->
<svg version="1.1" id="Calque_1" xmlns="http://www.w3.org/2000/svg" xmlns:xlink="http://www.w3.org/1999/xlink" x="0px" y="0px"
	 viewBox="0 0 1920 1080" style="enable-background:new 0 0 1920 1080;" xml:space="preserve">
<style type="text/css">
	.st0{fill:#6D62FB;}
</style>
<path class="st0" d="M1995.6,541c-41.2-14-78.5,9-122.2,41s-111.9,64-214.8,62c-102.9-2-147.9,16-180.1,74s-72.1,112-156.9,108
	c-84.9-4-135.1-24-217.4-38c-82.3-14-93.9,26-187.8,50c-93.9,24-122.2-14-200.7-45c-78.5-31-156.9,13-200.7,62s-91.3,70-160.8,69
	s-155.7-88-193.8-107c-4.2-2.1-8.4-3.8-12.3-5c-21.3-6.8-45.8-1.4-59.8,12.8C71.4,841.8,27.7,881-25.5,888c-68.2,9-96.5-9-136.4-6
	s-59.2,65-59.2,65V-133h2470c0,0-1.3,571.7,0,607C2180.8,611,1995.6,541,1995.6,541z"/>
</svg>
