<?xml version="1.0" encoding="utf-8"?>
<!-- Generator: Adobe Illustrator 25.2.0, SVG Export Plug-In . SVG Version: 6.00 Build 0)  -->
<svg version="1.1" id="Calque_1" xmlns="http://www.w3.org/2000/svg" xmlns:xlink="http://www.w3.org/1999/xlink" x="0px" y="0px"
	 viewBox="0 0 1573.4 1080" style="enable-background:new 0 0 1573.4 1080;" xml:space="preserve">
<style type="text/css">
	.st0{fill:#6D62FB;}
</style>
<path class="st0" d="M2586.1,987.9c-57.5-26.1-99.6-79.3-179.6-77.3s-133-30-167-62s-63-55-95-41c0,0-144,70-197-67
	c1-35.3,0-740.6,0-740.6h1920v1080c0,0-15-62-46-65s-50.7,21.6-103.7,12.6c-41.3-7-78.8-25.7-91.8-42.7
	c-10.9-14.2-29.9-19.6-46.5-12.8c-3.1,1.2-6.3,2.9-9.6,5c-29.7,19-95.4,78.9-149.4,79.9s-91-20-125-69s-95-93-156-62s-83,69-156,45
	s-130.9-57-179.4-13.1C2701.4,1050.8,2586.1,987.9,2586.1,987.9z"/>
<path class="st0" d="M492.6,940.3c-60.1-27.3-104-82.8-187.6-80.7s-138.9-31.3-174.4-64.8S64.8,737.4,31.4,752
	c0,0-150.4,73.1-205.8-70c1-36.8,0-773.6,0-773.6H1831v1128.1c0,0-15.7-64.8-48-67.9c-32.4-3.1-53,22.6-108.3,13.2
	c-43.1-7.3-82.4-26.9-95.9-44.6c-11.4-14.8-31.2-20.5-48.5-13.4c-3.2,1.3-6.5,3-10,5.2c-31,19.9-99.6,82.4-156,83.4
	s-95-20.9-130.6-72.1s-99.2-97.1-162.9-64.8c-63.7,32.4-86.7,72.1-162.9,47s-136.7-59.6-187.4-13.6
	C613.1,1006,492.6,940.3,492.6,940.3z"/>
</svg>
