<?xml version="1.0" encoding="utf-8"?>
<!-- Generator: Adobe Illustrator 25.2.0, SVG Export Plug-In . SVG Version: 6.00 Build 0)  -->
<svg version="1.1" id="Calque_1" xmlns="http://www.w3.org/2000/svg" xmlns:xlink="http://www.w3.org/1999/xlink" x="0px" y="0px"
	 viewBox="0 0 1573.4 1080" style="enable-background:new 0 0 1573.4 1080;" xml:space="preserve">
<style type="text/css">
	.st0{fill:#6D62FB;}
</style>
<path class="st0" d="M2586.1,987.9c-57.5-26.1-99.6-79.3-179.6-77.3s-133-30-167-62s-63-55-95-41c0,0-144,70-197-67
	c1-35.3,0-740.6,0-740.6h1920v1080c0,0-15-62-46-65s-50.7,21.6-103.7,12.6c-41.3-7-78.8-25.7-91.8-42.7
	c-10.9-14.2-29.9-19.6-46.5-12.8c-3.1,1.2-6.3,2.9-9.6,5c-29.7,19-95.4,78.9-149.4,79.9s-91-20-125-69s-95-93-156-62s-83,69-156,45
	s-130.9-57-179.4-13.1C2701.4,1050.8,2586.1,987.9,2586.1,987.9z"/>
<path class="st0" d="M936.1,735.1c-50.7-46-111.2-11.5-187.4,13.6s-99.2-14.6-162.9-47c-63.7-32.3-127.3,13.6-162.9,64.8
	s-74.2,73.1-130.6,72.1s-125-63.5-156-83.4c-3.5-2.2-6.8-3.9-10-5.2c-17.3-7.1-37.1-1.4-48.5,13.4C64.3,781.1,25,800.7-18.1,808
	c-55.3,9.4-75.9-16.3-108.3-13.2c-32.3,3.1-48,67.9-48,67.9V-265.4H1831c0,0-1,736.8,0,773.6c-55.4,143.1-205.8,70-205.8,70
	c-33.4-14.6-63.7,9.3-99.2,42.8s-90.8,66.9-174.4,64.8s-127.5,53.4-187.6,80.7C1164,766.5,1043.5,832.2,936.1,735.1z"/>
</svg>
