<svg xmlns="http://www.w3.org/2000/svg" viewBox="0 0 89 65"><defs><style>.cls-1{fill:#476ff5;}</style></defs><g id="Calque_2" data-name="Calque 2"><g id="Calque_1-2" data-name="Calque 1"><circle class="cls-1" cx="2.5" cy="2.5" r="2.5"/><circle class="cls-1" cx="16.5" cy="2.5" r="2.5"/><circle class="cls-1" cx="30.5" cy="2.5" r="2.5"/><circle class="cls-1" cx="44.5" cy="2.5" r="2.5"/><circle class="cls-1" cx="58.5" cy="2.5" r="2.5"/><circle class="cls-1" cx="72.5" cy="2.5" r="2.5"/><circle class="cls-1" cx="86.5" cy="2.5" r="2.5"/><circle class="cls-1" cx="2.5" cy="17.5" r="2.5"/><circle class="cls-1" cx="16.5" cy="17.5" r="2.5"/><circle class="cls-1" cx="30.5" cy="17.5" r="2.5"/><circle class="cls-1" cx="44.5" cy="17.5" r="2.5"/><circle class="cls-1" cx="58.5" cy="17.5" r="2.5"/><circle class="cls-1" cx="72.5" cy="17.5" r="2.5"/><circle class="cls-1" cx="86.5" cy="17.5" r="2.5"/><circle class="cls-1" cx="2.5" cy="32.5" r="2.5"/><circle class="cls-1" cx="16.5" cy="32.5" r="2.5"/><circle class="cls-1" cx="30.5" cy="32.5" r="2.5"/><circle class="cls-1" cx="44.5" cy="32.5" r="2.5"/><circle class="cls-1" cx="58.5" cy="32.5" r="2.5"/><circle class="cls-1" cx="72.5" cy="32.5" r="2.5"/><circle class="cls-1" cx="86.5" cy="32.5" r="2.5"/><circle class="cls-1" cx="2.5" cy="47.5" r="2.5"/><circle class="cls-1" cx="16.5" cy="47.5" r="2.5"/><circle class="cls-1" cx="30.5" cy="47.5" r="2.5"/><circle class="cls-1" cx="44.5" cy="47.5" r="2.5"/><circle class="cls-1" cx="58.5" cy="47.5" r="2.5"/><circle class="cls-1" cx="72.5" cy="47.5" r="2.5"/><circle class="cls-1" cx="86.5" cy="47.5" r="2.5"/><circle class="cls-1" cx="2.5" cy="62.5" r="2.5"/><circle class="cls-1" cx="16.5" cy="62.5" r="2.5"/><circle class="cls-1" cx="30.5" cy="62.5" r="2.5"/><circle class="cls-1" cx="44.5" cy="62.5" r="2.5"/><circle class="cls-1" cx="58.5" cy="62.5" r="2.5"/><circle class="cls-1" cx="72.5" cy="62.5" r="2.5"/><circle class="cls-1" cx="86.5" cy="62.5" r="2.5"/></g></g></svg>